<svg height="512pt" viewBox="-25 0 512 512" width="512pt" xmlns="http://www.w3.org/2000/svg"><path d="m441.675781 242.320312h-421.511719c-6.691406 0-12.113281-5.421874-12.113281-12.109374v-21.804688c0-6.6875 5.421875-12.109375 12.113281-12.109375h421.511719c6.6875 0 12.109375 5.421875 12.109375 12.109375v21.804688c0 6.6875-5.421875 12.109374-12.109375 12.109374zm0 0" fill="#ef9aa0"/><path d="m441.675781 196.296875h-43.605469c6.6875 0 12.113282 5.421875 12.113282 12.109375v21.804688c0 6.6875-5.425782 12.109374-12.113282 12.109374h43.605469c6.6875 0 12.109375-5.421874 12.109375-12.109374v-21.804688c0-6.6875-5.421875-12.109375-12.109375-12.109375zm0 0" fill="#ea7f87"/><path d="m417.449219 399.78125h-373.0625c-20.066407 0-36.335938-16.265625-36.335938-36.335938 0-20.066406 16.269531-36.335937 36.335938-36.335937h373.0625c20.070312 0 36.335937 16.269531 36.335937 36.335937 0 20.070313-16.265625 36.335938-36.335937 36.335938zm0 0" fill="#b46e5a"/><path d="m416.695312 327.109375h-39.214843c20.066406 0 36.335937 16.269531 36.335937 36.335937v8.480469c0 4.011719-3.253906 7.265625-7.265625 7.265625h-362.164062c-16.488281 0-30.40625-10.988281-34.847657-26.042968-1.164062 3.949218-1.6875 8.171874-1.417968 12.554687 1.1875 19.289063 17.695312 34.078125 37.023437 34.078125h372.304688c20.410156 0 36.886719-16.820312 36.324219-37.355469-.542969-19.792969-17.28125-35.316406-37.078126-35.316406zm0 0" fill="#a65d4e"/><path d="m429.5625 327.109375h-397.285156c-13.378906 0-24.226563-10.847656-24.226563-24.226563v-36.941406h445.734375v36.941406c0 13.378907-10.84375 24.226563-24.222656 24.226563zm0 0" fill="#ffea84"/><path d="m8.050781 265.941406v27.367188c1.25.714844 2.566407 1.351562 3.941407 1.890625l28.839843 11.28125c7.34375 2.875 15.066407 4.332031 22.953125 4.332031 7.886719 0 15.605469-1.457031 22.949219-4.332031l20.421875-7.988281c3.953125-1.546876 8.113281-2.332032 12.359375-2.332032s8.40625.78125 12.359375 2.332032l19.59375 7.667968c6.074219 2.375 12.445312 3.984375 18.949219 4.472656 9.554687.710938 18.941406-.695312 27.777343-4.152343l19.953126-7.808594c2.902343-1.136719 5.929687-1.964844 9.027343-2.300781 5.558594-.601563 11.03125.125 16.160157 2.132812l19.488281 7.640625c6.082031 2.386719 12.464843 3.996094 18.984375 4.480469 9.550781.710938 18.925781-.695312 27.761718-4.152344l19.949219-7.808594c2.898438-1.132812 5.921875-1.964843 9.015625-2.300781 5.558594-.601562 11.023438.121094 16.148438 2.128907l20.417968 7.988281c7.34375 2.875 15.066407 4.332031 22.953126 4.332031h.0625c2.9375-.003906 4.679687 3.234375 3.03125 5.664062-4.355469 6.414063-11.699219 10.628907-20.035157 10.628907h48.449219c13.378906 0 24.226562-10.84375 24.226562-24.222657v-36.945312h-445.738281zm0 0" fill="#ffe046"/><path d="m429.5625 196.296875h-397.285156c-13.378906 0-24.226563-10.847656-24.226563-24.226563v-4.136718c0-88.300782 71.582031-159.882813 159.882813-159.882813h125.96875c88.300781 0 159.886718 71.582031 159.886718 159.882813v4.136718c-.003906 13.378907-10.847656 24.226563-24.226562 24.226563zm0 0" fill="#fedca9"/><path d="m293.902344 8.050781h-42.390625c88.300781 0 159.882812 71.582031 159.882812 159.882813v4.136718c0 13.378907-10.847656 24.226563-24.226562 24.226563h42.394531c13.378906 0 24.222656-10.847656 24.222656-24.226563v-4.136718c0-88.300782-71.582031-159.882813-159.882812-159.882813zm0 0" fill="#fdc26b"/><path d="m429.5625 399.78125h-397.285156c-13.378906 0-24.226563 10.847656-24.226563 24.226562v31.492188c0 26.757812 21.691407 48.449219 48.449219 48.449219h348.839844c26.757812 0 48.449218-21.691407 48.449218-48.449219v-31.492188c-.003906-13.378906-10.847656-24.226562-24.226562-24.226562zm0 0" fill="#fedca9"/><path d="m429.5625 399.78125h-47.238281c13.378906 0 24.226562 10.847656 24.226562 24.226562v31.492188c0 26.757812-21.695312 48.449219-48.453125 48.449219h47.238282c26.757812 0 48.449218-21.691407 48.449218-48.449219v-31.492188c0-13.378906-10.84375-24.226562-24.222656-24.226562zm0 0" fill="#fdc26b"/><path d="m304.269531 292.332031 20.398438-7.980469c11.351562-4.445312 23.960937-4.445312 35.3125 0l20.417969 7.988282c11.351562 4.441406 23.960937 4.441406 35.3125 0l28.839843-11.285156c5.570313-2.179688 9.234375-7.550782 9.234375-13.535157v-10.664062c0-8.027344-6.507812-14.535157-14.53125-14.535157h-416.667968c-8.027344 0-14.535157 6.507813-14.535157 14.535157v10.664062c0 5.984375 3.667969 11.355469 9.238281 13.535157l28.839844 11.285156c11.351563 4.441406 23.960938 4.441406 35.308594 0l20.421875-7.988282c11.351563-4.445312 23.960937-4.445312 35.3125 0l20.410156 7.988282c11.351563 4.441406 23.960938 4.441406 35.3125 0l20.40625-7.984375c11.359375-4.445313 23.980469-4.441407 35.339844.011719l20.285156 7.957031c11.363281 4.453125 23.984375 4.457031 35.34375.007812zm0 0" fill="#dcf3a3"/><path d="m439.253906 242.320312h-52.085937c8.027343 0 14.535156 6.507813 14.535156 14.535157v10.664062.132813c-.058594 6.523437-6.21875 11.363281-12.632813 10.160156-2.941406-.550781-5.84375-1.378906-8.671874-2.484375l-20.417969-7.988281c-11.351563-4.445313-23.960938-4.445313-35.3125 0l-20.394531 7.980468c-11.363282 4.449219-23.984376 4.445313-35.34375-.011718l-20.289063-7.953125c-11.359375-4.453125-23.980469-4.457031-35.339844-.011719l-20.402343 7.984375c-11.351563 4.441406-23.960938 4.441406-35.3125-.003906l-20.414063-7.988281c-11.351563-4.441407-23.960937-4.441407-35.3125 0l-20.417969 7.988281c-11.351562 4.445312-23.960937 4.445312-35.3125 0l-28.839844-11.28125c-4.558593-1.785157-7.839843-5.707031-8.882812-10.351563-.226562 1.019532-.355469 2.078125-.355469 3.164063v10.664062c0 5.984375 3.667969 11.355469 9.238281 13.535157l28.839844 11.285156c11.351563 4.441406 23.960938 4.441406 35.3125 0l20.417969-7.988282c11.351563-4.441406 23.960937-4.441406 35.3125 0l20.414063 7.988282c11.351562 4.445312 23.960937 4.445312 35.3125.003906l20.402343-7.984375c11.359375-4.449219 23.980469-4.445313 35.339844.011719l20.289063 7.953125c11.359374 4.453125 23.980468 4.457031 35.339843.011719l20.394531-7.984376c11.355469-4.441406 23.964844-4.441406 35.316407 0l12.03125 4.707032 8.386719 3.285156c11.351562 4.441406 23.960937 4.441406 35.3125 0l28.839843-11.285156c5.570313-2.179688 9.234375-7.554688 9.234375-13.539063v-10.664062c0-8.027344-6.503906-14.535157-14.53125-14.535157zm0 0" fill="#cbed74"/><path d="m461.835938 167.933594c0-92.597656-75.332032-167.933594-167.933594-167.933594h-125.96875c-49.582032 0-96.378906 21.753906-128.386719 59.679688-2.867187 3.394531-2.441406 8.476562.957031 11.34375 3.398438 2.867187 8.476563 2.4375 11.34375-.960938 28.945313-34.292969 71.257813-53.960938 116.085938-53.960938h125.96875c83.722656 0 151.832031 68.113282 151.832031 151.832032v4.136718c0 8.917969-7.253906 16.171876-16.171875 16.171876h-397.289062c-8.917969 0-16.171876-7.253907-16.171876-16.171876v-4.136718c0-23.730469 5.316407-46.449219 15.804688-67.527344 1.980469-3.980469.355469-8.8125-3.625-10.792969-3.980469-1.984375-8.8125-.359375-10.792969 3.621094-11.601562 23.328125-17.488281 48.460937-17.488281 74.699219v4.136718c0 7.855469 2.824219 15.0625 7.503906 20.664063-4.570312 3.699219-7.503906 9.347656-7.503906 15.671875v21.804688c0 4.910156 1.769531 9.410156 4.695312 12.914062-2.929687 3.808594-4.695312 8.5625-4.695312 13.734375v46.027344c0 11.46875 6.019531 21.554687 15.0625 27.28125-9.226562 8.140625-15.0625 20.035156-15.0625 33.277343 0 13.242188 5.835938 25.140626 15.0625 33.28125-9.042969 5.726563-15.0625 15.808594-15.0625 27.28125v31.492188c0 31.152344 25.34375 56.5 56.5 56.5h109.789062c4.449219 0 8.050782-3.605469 8.050782-8.050781 0-4.445313-3.601563-8.050781-8.050782-8.050781h-109.789062c-22.277344 0-40.398438-18.121094-40.398438-40.398438v-31.492188c0-8.917968 7.253907-16.171874 16.171876-16.171874h397.289062c8.917969 0 16.171875 7.253906 16.171875 16.171874v31.492188c0 22.277344-18.121094 40.398438-40.398437 40.398438h-201.429688c-4.445312 0-8.050781 3.605468-8.050781 8.050781 0 4.445312 3.605469 8.050781 8.050781 8.050781h201.429688c31.15625 0 56.5-25.347656 56.5-56.5v-31.492188c0-11.472656-6.019532-21.558593-15.0625-27.28125 9.226562-8.140624 15.0625-20.039062 15.0625-33.28125 0-13.242187-5.835938-25.140624-15.0625-33.28125 9.042968-5.722656 15.0625-15.808593 15.0625-27.28125v-46.027343c0-5.167969-1.761719-9.921875-4.695313-13.734375 2.925781-3.5 4.695313-8.003906 4.695313-12.910156v-21.804688c0-6.324219-2.933594-11.972656-7.503907-15.671875 4.683594-5.601563 7.503907-12.808594 7.503907-20.664063zm-20.160157 36.410156c2.238281 0 4.0625 1.824219 4.0625 4.0625v21.804688c0 2.238281-1.824219 4.0625-4.0625 4.0625h-138.125c-4.445312 0-8.050781 3.601562-8.050781 8.046874 0 4.449219 3.605469 8.050782 8.050781 8.050782h135.703125c3.574219 0 6.480469 2.910156 6.480469 6.484375v10.664062c0 2.691407-1.617187 5.058594-4.121094 6.039063l-28.839843 11.285156c-9.492188 3.714844-19.949219 3.714844-29.441407 0l-20.417969-7.988281c-13.28125-5.199219-27.90625-5.195313-41.183593 0l-20.394531 7.980469c-9.5 3.71875-19.96875 3.71875-29.46875-.007813l-20.289063-7.957031c-13.289063-5.207032-27.921875-5.210938-41.210937-.011719l-20.402344 7.984375c-9.496094 3.714844-19.953125 3.714844-29.445313 0l-20.414062-7.988281c-13.277344-5.199219-27.902344-5.199219-41.179688 0l-20.417969 7.988281c-9.492187 3.71875-19.949218 3.71875-29.445312 0l-28.839844-11.285156c-2.503906-.980469-4.121094-3.347656-4.121094-6.039063v-10.664062c0-3.574219 2.910157-6.484375 6.484376-6.484375h243.085937c4.445313 0 8.046875-3.601563 8.046875-8.050782 0-4.445312-3.601562-8.046874-8.046875-8.046874h-245.507813c-2.242187 0-4.0625-1.824219-4.0625-4.0625v-21.804688c0-2.238281 1.820313-4.0625 4.0625-4.0625zm-397.289062 187.390625c-15.597657 0-28.285157-12.691406-28.285157-28.289063 0-15.597656 12.6875-28.285156 28.285157-28.285156h373.0625c15.597656 0 28.285156 12.6875 28.285156 28.285156 0 15.597657-12.6875 28.289063-28.285156 28.289063zm-12.113281-72.675781c-8.917969 0-16.171876-7.253906-16.171876-16.175782v-13.644531l27.09375 10.601563c6.640626 2.597656 13.613282 3.894531 20.585938 3.894531 6.976562 0 13.953125-1.300781 20.589844-3.894531l20.421875-7.992188c9.492187-3.714844 19.949219-3.714844 29.445312 0l20.410157 7.988282c13.277343 5.195312 27.90625 5.195312 41.183593 0l20.402344-7.984376c9.503906-3.714843 19.96875-3.714843 29.46875.011719l20.289063 7.953125c13.285156 5.210938 27.921874 5.214844 41.214843.011719l20.394531-7.980469c9.492188-3.714844 19.953126-3.714844 29.445313 0l20.417969 7.992188c13.277344 5.195312 27.898437 5.195312 41.179687 0l27.09375-10.601563v13.644531c0 8.921876-7.257812 16.175782-16.175781 16.175782zm0 0"/></svg>